<?xml version="1.0" encoding="UTF-8" standalone="no"?>
<!DOCTYPE svg PUBLIC "-//W3C//DTD SVG 1.1//EN"
 "http://www.w3.org/Graphics/SVG/1.1/DTD/svg11.dtd">
<!-- Generated by graphviz version 2.43.0 (0)
 -->
<!-- Title: %3 Pages: 1 -->
<svg width="364pt" height="44pt"
 viewBox="0.00 0.00 364.00 44.00" xmlns="http://www.w3.org/2000/svg" xmlns:xlink="http://www.w3.org/1999/xlink">
<g id="graph0" class="graph" transform="scale(1 1) rotate(0) translate(4 40)">
<title>%3</title>
<polygon fill="white" stroke="transparent" points="-4,4 -4,-40 360,-40 360,4 -4,4"/>
<!-- 0 -->
<g id="node1" class="node">
<title>0</title>
<ellipse fill="none" stroke="black" cx="27" cy="-18" rx="27" ry="18"/>
<text text-anchor="middle" x="27" y="-14.3" font-family="Times,serif" font-size="14.00">0</text>
</g>
<!-- 0&#45;&gt;0 -->
<g id="edge1" class="edge">
<title>0&#45;&gt;0</title>
<path fill="none" stroke="black" d="M53.79,-20.25C63.78,-20.32 72,-19.57 72,-18 72,-17.02 68.79,-16.36 63.94,-16.02"/>
<polygon fill="black" stroke="black" points="63.88,-12.52 53.79,-15.75 63.7,-19.51 63.88,-12.52"/>
<text text-anchor="middle" x="121" y="-14.3" font-family="Times,serif" font-size="14.00">pau:pau:&#45;2.07</text>
</g>
<!-- 0&#45;&gt;0 -->
<g id="edge2" class="edge">
<title>0&#45;&gt;0</title>
<path fill="none" stroke="black" d="M53.91,-21.13C96.65,-23.7 170,-22.65 170,-18 170,-13.7 107.4,-12.48 64.16,-14.34"/>
<polygon fill="black" stroke="black" points="63.72,-10.86 53.91,-14.87 64.07,-17.85 63.72,-10.86"/>
<text text-anchor="middle" x="209.5" y="-14.3" font-family="Times,serif" font-size="14.00">sh:sh:&#45;4.00</text>
</g>
<!-- 0&#45;&gt;0 -->
<g id="edge3" class="edge">
<title>0&#45;&gt;0</title>
<path fill="none" stroke="black" d="M53.53,-21.81C114.64,-26.74 249,-25.47 249,-18 249,-10.92 128.44,-9.41 63.78,-13.46"/>
<polygon fill="black" stroke="black" points="63.26,-9.99 53.53,-14.19 63.76,-16.97 63.26,-9.99"/>
<text text-anchor="middle" x="284.5" y="-14.3" font-family="Times,serif" font-size="14.00">ix:ix:&#45;3.46</text>
</g>
</g>
</svg>
