<?xml version="1.0" encoding="UTF-8" standalone="no"?>
<!DOCTYPE svg PUBLIC "-//W3C//DTD SVG 1.1//EN"
 "http://www.w3.org/Graphics/SVG/1.1/DTD/svg11.dtd">
<!-- Generated by graphviz version 2.43.0 (0)
 -->
<!-- Title: %3 Pages: 1 -->
<svg width="691pt" height="392pt"
 viewBox="0.00 0.00 690.93 392.00" xmlns="http://www.w3.org/2000/svg" xmlns:xlink="http://www.w3.org/1999/xlink">
<g id="graph0" class="graph" transform="scale(1 1) rotate(0) translate(4 388)">
<title>%3</title>
<polygon fill="white" stroke="transparent" points="-4,4 -4,-388 686.93,-388 686.93,4 -4,4"/>
<!-- 0 -->
<g id="node1" class="node">
<title>0</title>
<ellipse fill="none" stroke="black" cx="280.93" cy="-366" rx="27" ry="18"/>
<text text-anchor="middle" x="280.93" y="-362.3" font-family="Times,serif" font-size="14.00">0</text>
</g>
<!-- 0&#45;&gt;0 -->
<g id="edge1" class="edge">
<title>0&#45;&gt;0</title>
<path fill="none" stroke="black" d="M305.47,-373.75C316.44,-374.49 325.93,-371.91 325.93,-366 325.93,-362.03 321.65,-359.56 315.51,-358.59"/>
<polygon fill="black" stroke="black" points="315.58,-355.09 305.47,-358.25 315.34,-362.09 315.58,-355.09"/>
<text text-anchor="middle" x="383.93" y="-362.3" font-family="Times,serif" font-size="14.00">pau:&lt;eps&gt;:0.01</text>
</g>
<!-- 1 -->
<g id="node2" class="node">
<title>1</title>
<ellipse fill="none" stroke="black" cx="39.93" cy="-279" rx="27" ry="18"/>
<text text-anchor="middle" x="39.93" y="-275.3" font-family="Times,serif" font-size="14.00">1</text>
</g>
<!-- 0&#45;&gt;1 -->
<g id="edge2" class="edge">
<title>0&#45;&gt;1</title>
<path fill="none" stroke="black" d="M253.8,-363.58C187.29,-359.81 20.32,-348.59 3.93,-330 -4.66,-320.25 3.01,-308.49 13.45,-298.83"/>
<polygon fill="black" stroke="black" points="15.92,-301.32 21.34,-292.22 11.43,-295.95 15.92,-301.32"/>
<text text-anchor="middle" x="56.93" y="-318.8" font-family="Times,serif" font-size="14.00">ax:&lt;eps&gt;:0.00</text>
</g>
<!-- 3 -->
<g id="node4" class="node">
<title>3</title>
<ellipse fill="none" stroke="black" cx="399.93" cy="-279" rx="27" ry="18"/>
<text text-anchor="middle" x="399.93" y="-275.3" font-family="Times,serif" font-size="14.00">3</text>
</g>
<!-- 0&#45;&gt;3 -->
<g id="edge3" class="edge">
<title>0&#45;&gt;3</title>
<path fill="none" stroke="black" d="M303.34,-355.54C317.09,-349.25 334.72,-340.26 348.93,-330 359.93,-322.06 370.84,-311.78 379.73,-302.6"/>
<polygon fill="black" stroke="black" points="382.36,-304.91 386.68,-295.23 377.27,-300.11 382.36,-304.91"/>
<text text-anchor="middle" x="416.43" y="-318.8" font-family="Times,serif" font-size="14.00">n:&lt;eps&gt;:0.00</text>
</g>
<!-- 1&#45;&gt;0 -->
<g id="edge6" class="edge">
<title>1&#45;&gt;0</title>
<path fill="none" stroke="black" d="M61.4,-289.95C75.43,-296.64 94.02,-305.87 109.93,-315 120.52,-321.07 121.72,-325.19 132.93,-330 169.29,-345.59 213.79,-354.92 244.44,-359.98"/>
<polygon fill="black" stroke="black" points="244.25,-363.49 254.67,-361.59 245.34,-356.58 244.25,-363.49"/>
<text text-anchor="middle" x="172.93" y="-318.8" font-family="Times,serif" font-size="14.00">m:&#39;em:0.50</text>
</g>
<!-- 1&#45;&gt;1 -->
<g id="edge4" class="edge">
<title>1&#45;&gt;1</title>
<path fill="none" stroke="black" d="M64.47,-286.75C75.44,-287.49 84.93,-284.91 84.93,-279 84.93,-275.03 80.65,-272.56 74.51,-271.59"/>
<polygon fill="black" stroke="black" points="74.58,-268.09 64.47,-271.25 74.34,-275.09 74.58,-268.09"/>
<text text-anchor="middle" x="137.93" y="-275.3" font-family="Times,serif" font-size="14.00">ax:&lt;eps&gt;:0.00</text>
</g>
<!-- 2 -->
<g id="node3" class="node">
<title>2</title>
<ellipse fill="none" stroke="black" cx="133.93" cy="-192" rx="27" ry="18"/>
<text text-anchor="middle" x="133.93" y="-188.3" font-family="Times,serif" font-size="14.00">2</text>
</g>
<!-- 1&#45;&gt;2 -->
<g id="edge5" class="edge">
<title>1&#45;&gt;2</title>
<path fill="none" stroke="black" d="M55.46,-263.96C70.56,-250.31 93.69,-229.39 110.93,-213.8"/>
<polygon fill="black" stroke="black" points="113.32,-216.36 118.39,-207.06 108.62,-211.17 113.32,-216.36"/>
<text text-anchor="middle" x="144.43" y="-231.8" font-family="Times,serif" font-size="14.00">m:&lt;eps&gt;:0.00</text>
</g>
<!-- 2&#45;&gt;0 -->
<g id="edge8" class="edge">
<title>2&#45;&gt;0</title>
<path fill="none" stroke="black" d="M156.98,-201.49C170.65,-207.38 187.64,-216.27 199.93,-228 200.52,-228.56 243.26,-301.05 266.41,-340.34"/>
<polygon fill="black" stroke="black" points="263.48,-342.26 271.57,-349.1 269.51,-338.71 263.48,-342.26"/>
<text text-anchor="middle" x="280.93" y="-275.3" font-family="Times,serif" font-size="14.00">m:&#39;em:0.50</text>
</g>
<!-- 2&#45;&gt;2 -->
<g id="edge7" class="edge">
<title>2&#45;&gt;2</title>
<path fill="none" stroke="black" d="M158.47,-199.75C169.44,-200.49 178.93,-197.91 178.93,-192 178.93,-188.03 174.65,-185.56 168.51,-184.59"/>
<polygon fill="black" stroke="black" points="168.58,-181.09 158.47,-184.25 168.34,-188.09 168.58,-181.09"/>
<text text-anchor="middle" x="230.43" y="-188.3" font-family="Times,serif" font-size="14.00">m:&lt;eps&gt;:0.00</text>
</g>
<!-- 3&#45;&gt;3 -->
<g id="edge9" class="edge">
<title>3&#45;&gt;3</title>
<path fill="none" stroke="black" d="M424.47,-286.75C435.44,-287.49 444.93,-284.91 444.93,-279 444.93,-275.03 440.65,-272.56 434.51,-271.59"/>
<polygon fill="black" stroke="black" points="434.58,-268.09 424.47,-271.25 434.34,-275.09 434.58,-268.09"/>
<text text-anchor="middle" x="494.43" y="-275.3" font-family="Times,serif" font-size="14.00">n:&lt;eps&gt;:0.00</text>
</g>
<!-- 4 -->
<g id="node5" class="node">
<title>4</title>
<ellipse fill="none" stroke="black" cx="393.93" cy="-192" rx="27" ry="18"/>
<text text-anchor="middle" x="393.93" y="-188.3" font-family="Times,serif" font-size="14.00">4</text>
</g>
<!-- 3&#45;&gt;4 -->
<g id="edge10" class="edge">
<title>3&#45;&gt;4</title>
<path fill="none" stroke="black" d="M419.04,-265.98C431.7,-256.39 444.8,-242.24 437.93,-228 434.55,-220.99 429.01,-214.95 422.97,-209.96"/>
<polygon fill="black" stroke="black" points="424.73,-206.91 414.6,-203.8 420.59,-212.55 424.73,-206.91"/>
<text text-anchor="middle" x="491.93" y="-231.8" font-family="Times,serif" font-size="14.00">ae:&lt;eps&gt;:0.00</text>
</g>
<!-- 4&#45;&gt;4 -->
<g id="edge11" class="edge">
<title>4&#45;&gt;4</title>
<path fill="none" stroke="black" d="M418.47,-199.75C429.44,-200.49 438.93,-197.91 438.93,-192 438.93,-188.03 434.65,-185.56 428.51,-184.59"/>
<polygon fill="black" stroke="black" points="428.58,-181.09 418.47,-184.25 428.34,-188.09 428.58,-181.09"/>
<text text-anchor="middle" x="491.93" y="-188.3" font-family="Times,serif" font-size="14.00">ae:&lt;eps&gt;:0.00</text>
</g>
<!-- 5 -->
<g id="node6" class="node">
<title>5</title>
<ellipse fill="none" stroke="black" cx="393.93" cy="-105" rx="27" ry="18"/>
<text text-anchor="middle" x="393.93" y="-101.3" font-family="Times,serif" font-size="14.00">5</text>
</g>
<!-- 4&#45;&gt;5 -->
<g id="edge12" class="edge">
<title>4&#45;&gt;5</title>
<path fill="none" stroke="black" d="M393.93,-173.8C393.93,-162.16 393.93,-146.55 393.93,-133.24"/>
<polygon fill="black" stroke="black" points="397.43,-133.18 393.93,-123.18 390.43,-133.18 397.43,-133.18"/>
<text text-anchor="middle" x="442.93" y="-144.8" font-family="Times,serif" font-size="14.00">k:&lt;eps&gt;:0.00</text>
</g>
<!-- 5&#45;&gt;0 -->
<g id="edge15" class="edge">
<title>5&#45;&gt;0</title>
<path fill="none" stroke="black" d="M385.18,-122.12C377.77,-135.84 366.97,-156.12 357.93,-174 345.92,-197.78 339.89,-202.58 331.93,-228 322.65,-257.64 331.43,-267.77 320.93,-297 315.34,-312.56 306.13,-328.56 297.96,-341.13"/>
<polygon fill="black" stroke="black" points="294.92,-339.37 292.25,-349.62 300.74,-343.27 294.92,-339.37"/>
<text text-anchor="middle" x="382.93" y="-231.8" font-family="Times,serif" font-size="14.00">s:&#45;knacks:0.50</text>
</g>
<!-- 5&#45;&gt;5 -->
<g id="edge13" class="edge">
<title>5&#45;&gt;5</title>
<path fill="none" stroke="black" d="M418.47,-112.75C429.44,-113.49 438.93,-110.91 438.93,-105 438.93,-101.03 434.65,-98.56 428.51,-97.59"/>
<polygon fill="black" stroke="black" points="428.58,-94.09 418.47,-97.25 428.34,-101.09 428.58,-94.09"/>
<text text-anchor="middle" x="487.93" y="-101.3" font-family="Times,serif" font-size="14.00">k:&lt;eps&gt;:0.00</text>
</g>
<!-- 6 -->
<g id="node7" class="node">
<title>6</title>
<ellipse fill="none" stroke="black" cx="487.93" cy="-18" rx="27" ry="18"/>
<text text-anchor="middle" x="487.93" y="-14.3" font-family="Times,serif" font-size="14.00">6</text>
</g>
<!-- 5&#45;&gt;6 -->
<g id="edge14" class="edge">
<title>5&#45;&gt;6</title>
<path fill="none" stroke="black" d="M409.46,-89.96C424.56,-76.31 447.69,-55.39 464.93,-39.8"/>
<polygon fill="black" stroke="black" points="467.32,-42.36 472.39,-33.06 462.62,-37.17 467.32,-42.36"/>
<text text-anchor="middle" x="494.43" y="-57.8" font-family="Times,serif" font-size="14.00">s:&lt;eps&gt;:0.00</text>
</g>
<!-- 6&#45;&gt;0 -->
<g id="edge17" class="edge">
<title>6&#45;&gt;0</title>
<path fill="none" stroke="black" d="M510.92,-28.08C538.46,-40.64 580.93,-66.16 580.93,-104 580.93,-280 580.93,-280 580.93,-280 580.93,-334.07 398.23,-355.52 317.98,-362.33"/>
<polygon fill="black" stroke="black" points="317.5,-358.85 307.82,-363.16 318.07,-365.83 317.5,-358.85"/>
<text text-anchor="middle" x="631.93" y="-188.3" font-family="Times,serif" font-size="14.00">s:&#45;knacks:0.50</text>
</g>
<!-- 6&#45;&gt;6 -->
<g id="edge16" class="edge">
<title>6&#45;&gt;6</title>
<path fill="none" stroke="black" d="M512.47,-25.75C523.44,-26.49 532.93,-23.91 532.93,-18 532.93,-14.03 528.65,-11.56 522.51,-10.59"/>
<polygon fill="black" stroke="black" points="522.58,-7.09 512.47,-10.25 522.34,-14.09 522.58,-7.09"/>
<text text-anchor="middle" x="581.43" y="-14.3" font-family="Times,serif" font-size="14.00">s:&lt;eps&gt;:0.00</text>
</g>
</g>
</svg>
